<svg width="100" height="100" fill="none" xmlns="http://www.w3.org/2000/svg"><g clip-path="url(#a)" fill="#000"><path d="M82.416 82.401a2.89 2.89 0 0 0 2.887-2.887V69.078a2.89 2.89 0 0 0-2.887-2.887H71.98a2.89 2.89 0 0 0-2.887 2.887v10.436a2.89 2.89 0 0 0 2.887 2.887h10.436Zm-10.372-6.575h3.679v3.624h-3.679v-3.624Zm6.63 3.624v-3.624h3.678v3.624h-3.678Zm3.678-6.575h-3.678v-3.733h3.678v3.733Zm-6.63-3.733v3.734h-3.678v-3.734h3.679ZM28.002 82.401a2.89 2.89 0 0 0 2.887-2.887V69.078a2.89 2.89 0 0 0-2.887-2.887H17.566a2.89 2.89 0 0 0-2.887 2.887v10.436a2.89 2.89 0 0 0 2.887 2.887h10.436ZM17.63 75.826h3.679v3.624H17.63v-3.624Zm6.63 3.624v-3.624h3.678v3.624H24.26Zm3.678-6.575H24.26v-3.733h3.678v3.733Zm-6.63-3.733v3.734H17.63v-3.734h3.679Z"/><path d="M96.085 97.049h-4.342V44.317a2.459 2.459 0 0 0 1.404-.849l2.854-3.462a2.46 2.46 0 0 0 .554-1.814 2.463 2.463 0 0 0-.89-1.675L52.666 1.077a4.724 4.724 0 0 0-6.034.024L4.322 36.535a2.481 2.481 0 0 0-.31 3.49l2.881 3.441c.36.43.844.717 1.384.83v24.532a1.476 1.476 0 0 0 2.95 0V55.7h3.487v1.235a4.778 4.778 0 0 0 4.773 4.773 4.778 4.778 0 0 0 4.773-4.773V55.7h5.715v1.235a4.778 4.778 0 0 0 4.773 4.773 4.778 4.778 0 0 0 4.773-4.773V55.7h5.716v1.235a4.778 4.778 0 0 0 4.773 4.773 4.778 4.778 0 0 0 4.773-4.773V55.7H60.5v1.235a4.778 4.778 0 0 0 4.773 4.773 4.778 4.778 0 0 0 4.773-4.773V55.7h5.715v1.235a4.778 4.778 0 0 0 4.773 4.773 4.778 4.778 0 0 0 4.773-4.773V55.7h3.487v31.748h-5.255a1.475 1.475 0 1 0 0 2.952h5.255v6.649H64.778v-6.65h12.857a1.475 1.475 0 1 0 0-2.95H64.778V71.2a4.938 4.938 0 0 0-4.933-4.932h-19.67a4.938 4.938 0 0 0-4.933 4.932v16.247H11.228V74.731a1.476 1.476 0 0 0-2.951 0v22.318H3.915a1.476 1.476 0 0 0 0 2.951h92.17a1.475 1.475 0 1 0 0-2.951ZM6.579 38.493l41.947-35.13a1.771 1.771 0 0 1 2.263-.008l42.634 35.139-2.252 2.732L50.618 7.803a1.473 1.473 0 0 0-1.886.007L8.852 41.21 6.58 38.493Zm52.25-20.098H40.69l8.998-7.535 9.143 7.535Zm-37.52 38.54a1.824 1.824 0 0 1-1.822 1.822 1.824 1.824 0 0 1-1.822-1.822V55.7h3.644v1.235Zm15.261 0a1.824 1.824 0 0 1-1.822 1.822 1.824 1.824 0 0 1-1.822-1.822V55.7h3.644v1.235Zm15.262 0a1.824 1.824 0 0 1-1.822 1.822 1.824 1.824 0 0 1-1.822-1.822V55.7h3.644v1.235Zm15.261 0a1.824 1.824 0 0 1-1.822 1.822 1.824 1.824 0 0 1-1.822-1.822V55.7h3.644v1.235Zm15.262 0a1.824 1.824 0 0 1-1.822 1.822 1.824 1.824 0 0 1-1.822-1.822V55.7h3.644v1.235Zm-71.127-4.186v-3.303h69.359a1.475 1.475 0 1 0 0-2.95H72.85v-7.15h1.852a1.476 1.476 0 1 0 0-2.95H64.32v-5.907a3.392 3.392 0 0 0-3.388-3.387H39.17a3.392 3.392 0 0 0-3.388 3.387v5.906H25.298a1.475 1.475 0 1 0 0 2.951h1.954v7.15H11.228v-3.428l25.938-21.722H62.41L88.792 43.09v3.405h-2.303a1.476 1.476 0 1 0 0 2.951h2.303v3.303H11.228ZM35.78 39.346v7.15h-5.578v-7.15h5.578Zm28.54 7.15v-7.15h5.578v7.15H64.32Zm-20.01-7.15v7.15h-5.579v-7.15h5.579Zm2.95 0h5.58v7.15h-5.58v-7.15Zm8.53 0h5.578v7.15h-5.578v-7.15Zm5.579-2.95H38.731v-5.907c0-.24.196-.436.437-.436h21.764c.24 0 .437.196.437.436v5.906Zm.457 34.805v25.848h-3.26v-27.83h1.279c1.092 0 1.98.89 1.98 1.982ZM51.37 69.22h4.244v27.829h-4.244v-27.83Zm-2.95 27.829h-4.017v-27.83h4.016v27.83Zm-8.247-27.83h1.28v27.83h-3.261V71.201c0-1.093.889-1.981 1.981-1.981ZM35.242 90.4v6.65H11.228v-6.65h24.014Z"/></g><defs><clipPath id="a"><path fill="#fff" d="M0 0h100v100H0z"/></clipPath></defs></svg>