<svg width="307" height="197" fill="none" xmlns="http://www.w3.org/2000/svg"><path d="M179.118 60.584h-7.2v64.8h7.2V149h-54.432v-23.616h6.912v-50.4L107.118 149H85.806l-25.2-73.296v49.68h6.912V149H20.286v-23.616h7.2v-64.8h-7.2V36.968h65.952l14.976 44.928 14.4-44.928h63.504v23.616Zm5.7 88.416v-23.616h7.2v-64.8h-7.2V36.968h97.2v43.488h-32.256V60.584h-17.424v22.752h12.672v16.416h-12.672v25.632h17.424v-22.752h32.256V149h-97.2Z" fill="#fff"/><path fill="#C4C4C4" d="M1 6h120v2H1z"/><path fill="#C4C4C4" d="M0 6h2v120H0zM185 165h120v2H185zM305 47h2v120h-2z"/></svg>