<svg width="100" height="100" fill="none" xmlns="http://www.w3.org/2000/svg"><path d="m89.063 39.984 2.054 1.396a1.565 1.565 0 0 0 1.172.242c.406-.078.766-.314.998-.658l3.51-5.173a1.561 1.561 0 0 0-.416-2.17L50.878 2.743a1.563 1.563 0 0 0-1.755 0L3.617 33.622a1.563 1.563 0 0 0-.415 2.17l3.509 5.173a1.557 1.557 0 0 0 2.17.416l2.056-1.397v15.633a3.884 3.884 0 0 0-2.056 2.111c-2.626 6.494-5.756 15.028-5.756 18.834 0 5.61 3.266 9.966 7.813 10.786v6.402H3.125v3.125h93.75V93.75h-7.813V39.984ZM8.42 37.917l-1.754-2.589L50 5.923l43.334 29.405-1.754 2.587-40.702-27.618a1.566 1.566 0 0 0-1.756 0L8.42 37.917ZM6.25 76.562c0-2.539 2.014-8.976 5.527-17.662a.754.754 0 0 1 .723-.49c.158 0 .544.048.723.49 3.513 8.686 5.527 15.123 5.527 17.662 0 4.527-2.63 7.813-6.25 7.813s-6.25-3.286-6.25-7.813Zm7.813 10.786c4.546-.82 7.812-5.176 7.812-10.786 0-3.806-3.13-12.34-5.756-18.834a3.885 3.885 0 0 0-2.056-2.11V37.863L50 13.478l35.938 24.386v30.414l-.263-.394c-.58-.87-2.02-.87-2.6 0l-3.125 4.688c-.17.254-.263.558-.263.865v3.125h-3.124v-3.125c0-.307-.093-.61-.263-.867l-3.125-4.687c-.58-.87-2.02-.87-2.6 0L67.45 72.57a1.57 1.57 0 0 0-.263.867v3.125h-3.124v-3.125c0-.307-.093-.61-.263-.867l-3.125-4.687c-.58-.87-2.02-.87-2.6 0L54.95 72.57a1.57 1.57 0 0 0-.263.867V93.75h-9.374V64.062c0-.864-.699-1.562-1.563-1.562H26.562c-.864 0-1.562.698-1.562 1.562V93.75H14.062v-6.402Zm46.874 6.402h-3.124V73.91l1.562-2.343 1.563 2.344V93.75Zm3.126-14.063h3.124v3.125h-3.124v-3.125Zm0 6.25h3.124v7.813h-3.124v-7.813Zm9.374 7.813h-3.124V73.91l1.562-2.343 1.563 2.344V93.75Zm3.126-14.063h3.124v3.125h-3.124v-3.125Zm0 6.25h3.124v7.813h-3.124v-7.813ZM42.187 93.75H28.126V65.625h14.063V93.75Zm40.626 0V73.91l1.562-2.343 1.563 2.344V93.75h-3.126Z" fill="#000"/><path d="M45.313 51.563h9.374a6.256 6.256 0 0 0 6.25-6.25v-9.376a6.256 6.256 0 0 0-6.25-6.25h-9.374a6.256 6.256 0 0 0-6.25 6.25v9.376a6.256 6.256 0 0 0 6.25 6.25Zm-3.126-6.25v-3.126h6.25v6.25h-3.124a3.128 3.128 0 0 1-3.126-3.124Zm12.5 3.124h-3.124v-6.25h6.25v3.126a3.128 3.128 0 0 1-3.126 3.124Zm3.126-12.5v3.126h-6.25v-6.25h3.124a3.128 3.128 0 0 1 3.126 3.124Zm-12.5-3.124h3.124v6.25h-6.25v-3.126a3.128 3.128 0 0 1 3.126-3.124ZM35.938 78.125h3.124v3.125h-3.124v-3.125Z" fill="#000"/></svg>