<svg width="49" height="61" fill="none" xmlns="http://www.w3.org/2000/svg"><g clip-path="url(#a)"><path d="M18.424 49.162v-4.418h-2.285l-.188 2.566c-.058.837-.224 1.438-.498 1.805v.047h2.97Zm-3.697 2.45h-.95v-2.45h.51c.41-.27.65-.894.72-1.875l.235-3.38h4.195v5.255h.967v2.45h-.949V50h-4.728v1.611ZM23.85 50.105c-.852 0-1.536-.283-2.051-.85-.516-.57-.774-1.337-.774-2.302 0-.965.258-1.73.774-2.297.515-.57 1.199-.855 2.05-.855.848 0 1.53.285 2.046.855.515.567.773 1.332.773 2.297 0 .961-.258 1.727-.773 2.297-.516.57-1.198.855-2.045.855Zm-1.307-1.494c.324.399.76.598 1.307.598.546 0 .98-.197 1.3-.592.32-.398.48-.953.48-1.664 0-.71-.16-1.264-.48-1.658-.32-.398-.753-.598-1.3-.598s-.983.2-1.307.598c-.32.398-.48.951-.48 1.658s.16 1.26.48 1.658ZM28.807 50h-1.008v-6.094h1.236l2.168 4.746h.047l2.18-4.746h1.19V50h-1.014v-4.324h-.041l-1.97 4.148h-.779l-1.968-4.148h-.041V50ZM4.08 59v-5.256H1.133V59H.125v-6.094h4.969V59H4.08ZM9.055 59.105c-.852 0-1.535-.283-2.051-.85-.516-.57-.774-1.337-.774-2.302 0-.965.258-1.73.774-2.297.516-.57 1.2-.855 2.05-.855.848 0 1.53.285 2.046.855.515.567.773 1.332.773 2.297 0 .961-.258 1.727-.773 2.297-.516.57-1.198.855-2.045.855Zm-1.307-1.494c.324.399.76.598 1.307.598.547 0 .98-.197 1.3-.592.32-.398.48-.953.48-1.664 0-.71-.16-1.264-.48-1.658-.32-.398-.753-.598-1.3-.598s-.983.2-1.307.598c-.32.398-.48.951-.48 1.658s.16 1.26.48 1.658ZM18.049 54.781H17.04a1.504 1.504 0 0 0-.533-.779c-.262-.203-.596-.305-1.002-.305-.531 0-.957.207-1.277.621-.32.41-.481.955-.481 1.635 0 .691.16 1.24.48 1.647.325.406.754.609 1.29.609.398 0 .728-.094.99-.281a1.41 1.41 0 0 0 .545-.791h1.008a2.239 2.239 0 0 1-.844 1.423c-.461.364-1.03.545-1.705.545-.852 0-1.532-.283-2.04-.85-.507-.57-.761-1.337-.761-2.302 0-.95.254-1.71.762-2.285.507-.578 1.183-.867 2.027-.867.7 0 1.273.191 1.723.574.453.383.728.852.826 1.406ZM23.463 52.906v.838h-1.969V59h-1.008v-5.256h-1.968v-.838h4.945ZM27.371 52.8c.781 0 1.41.288 1.887.862.48.574.72 1.338.72 2.291 0 .95-.238 1.713-.714 2.291-.477.574-1.1.861-1.87.861-.43 0-.814-.097-1.154-.292a2.016 2.016 0 0 1-.785-.803h-.023v3.023h-1.02v-8.127h.967v1.032h.023c.192-.352.46-.63.803-.833a2.247 2.247 0 0 1 1.166-.304Zm-.2 5.409c.544 0 .974-.203 1.29-.61.316-.406.475-.954.475-1.646 0-.691-.159-1.24-.475-1.646-.316-.407-.746-.61-1.29-.61-.523 0-.944.207-1.265.621-.32.414-.48.96-.48 1.635 0 .68.16 1.227.48 1.64.32.41.742.616 1.266.616ZM33.64 59.105c-.85 0-1.535-.283-2.05-.85-.516-.57-.774-1.337-.774-2.302 0-.965.258-1.73.774-2.297.515-.57 1.2-.855 2.05-.855.848 0 1.53.285 2.045.855.516.567.774 1.332.774 2.297 0 .961-.258 1.727-.774 2.297-.515.57-1.197.855-2.044.855Zm-1.306-1.494c.324.399.76.598 1.307.598.547 0 .98-.197 1.3-.592.32-.398.48-.953.48-1.664 0-.71-.16-1.264-.48-1.658-.32-.398-.754-.598-1.3-.598-.547 0-.983.2-1.307.598-.32.398-.48.951-.48 1.658s.16 1.26.48 1.658ZM40.04 53.685c-.474 0-.866.165-1.179.493-.308.324-.478.742-.51 1.254h3.311c-.012-.516-.166-.936-.463-1.26-.297-.324-.683-.486-1.16-.486Zm1.599 3.569h1.002c-.09.539-.371.982-.844 1.33-.469.348-1.033.521-1.694.521-.87 0-1.556-.28-2.056-.843s-.75-1.325-.75-2.285c0-.954.25-1.721.75-2.303.504-.582 1.174-.873 2.01-.873.82 0 1.468.275 1.945.826.476.55.715 1.289.715 2.215v.386h-4.371v.06c0 .585.16 1.054.48 1.405.32.352.754.528 1.301.528.383 0 .709-.088.978-.264.27-.176.448-.41.534-.703ZM47.861 59v-2.742h-3.005V59h-1.008v-6.094h1.008v2.514h3.005v-2.514h1.008V59h-1.008Z" fill="#000"/><path d="M29.924 36.996H19.075l-2.264 3.203h15.375l-2.263-3.203Z" fill="#C1B0B5"/><path d="M24.5 6.224 10.086 17.31v16.483h28.828V17.31L24.5 6.224Z" fill="#F3EFF0"/><path d="M24.5 6.224 8.657 18.408a2.393 2.393 0 0 1-1.694.479c-1.208-.117-1.867-.807-2.099-1.83a2.408 2.408 0 0 1 .885-2.473L23.046 1.291a2.401 2.401 0 0 1 2.908 0l17.297 13.293a2.402 2.402 0 1 1-2.908 3.825L24.5 6.223Z" fill="#FF7B79"/><path d="M38.914 30.603c1.933.153 3.462 1.688 3.646 3.614a3.19 3.19 0 0 1 1.639 2.779 3.203 3.203 0 0 1-3.203 3.203h-8.809a2.396 2.396 0 0 1-.786-4.662c-.094-1.877 1.41-3.346 3.189-3.346.256 0 .502.038.74.095a3.99 3.99 0 0 1 3.584-1.683Z" fill="#D8EC84"/><path d="M38.914.801v10.447l-.002.002-4.803-3.692V.8h4.805Z" fill="#C1B0B5"/><path d="M27.703 17.297c1.896 0 3.203 1.607 3.203 3.51 0 2.633-2.606 4.377-6.406 7.7-3.8-3.323-6.406-5.067-6.406-7.7 0-1.903 1.307-3.51 3.203-3.51 2.434 0 3.203 2.803 3.203 2.803s.769-2.803 3.203-2.803Z" fill="#FF7B79"/><path d="M19.215 37.797a2.402 2.402 0 0 1-2.402 2.402H8.004a3.203 3.203 0 0 1-3.203-3.203 3.19 3.19 0 0 1 1.64-2.78c.183-1.925 1.712-3.46 3.645-3.613a3.99 3.99 0 0 1 3.584 1.683c.238-.057.484-.095.74-.095a3.203 3.203 0 0 1 3.203 3.203c0 .05-.012.095-.014.143a2.396 2.396 0 0 1 1.616 2.26Z" fill="#D8EC84"/><path d="M21.297 16.496c-2.327 0-4.004 1.947-4.004 4.311 0 2.599 2 4.303 5.027 6.882.528.45 1.074.915 1.653 1.421a.799.799 0 0 0 1.054 0c.58-.506 1.125-.971 1.653-1.42 3.027-2.58 5.027-4.284 5.027-6.883 0-2.364-1.677-4.31-4.004-4.31-1.59 0-2.6.907-3.203 1.784-.603-.877-1.612-1.785-3.203-1.785Zm3.975 3.816c.007-.023.629-2.214 2.431-2.214 1.37 0 2.403 1.165 2.403 2.71 0 1.858-1.68 3.29-4.465 5.662-.37.315-.747.637-1.14.977-.394-.34-.773-.662-1.142-.977-2.784-2.372-4.464-3.804-4.464-5.663 0-1.544 1.032-2.71 2.402-2.71 1.78 0 2.403 2.117 2.431 2.217a.8.8 0 0 0 1.544-.003ZM14.09 8.969a.8.8 0 1 0 0-1.602.8.8 0 0 0 0 1.602Z" fill="#000"/><path d="M39.857 19.046a3.174 3.174 0 0 0 1.94.654A3.207 3.207 0 0 0 45 16.497c0-1.009-.46-1.938-1.26-2.547l-4.025-3.093V.802a.8.8 0 0 0-.8-.801h-4.806a.8.8 0 0 0-.8.8v5.133l-6.87-5.28A3.174 3.174 0 0 0 24.5.002c-.707 0-1.378.226-1.942.656l-6.097 4.686a.8.8 0 1 0 .976 1.27l6.094-4.684c.28-.214.616-.326.97-.326.353 0 .688.112.965.324l17.3 13.295a1.603 1.603 0 0 1-1.935 2.553L24.988 5.59a.8.8 0 0 0-.948-.02c-.036.025-15.866 12.201-15.868 12.202a1.602 1.602 0 0 1-1.132.318c-.793-.077-1.223-.45-1.395-1.21a1.613 1.613 0 0 1 .592-1.66l5.488-4.218a.8.8 0 0 0-.976-1.27l-5.485 4.216a3.197 3.197 0 0 0-1.18 3.286c.324 1.436 1.32 2.307 2.801 2.45a3.197 3.197 0 0 0 2.258-.638v-.002l.143-.108v10.987a4.788 4.788 0 0 0-3.588 3.818 4 4 0 0 0-1.697 3.256A4.008 4.008 0 0 0 8.004 41h32.992A4.008 4.008 0 0 0 45 36.997a4 4 0 0 0-1.698-3.256 4.787 4.787 0 0 0-3.587-3.819V18.936l.142.11ZM34.91 1.603h3.203v8.023L34.91 7.165V1.603ZM16.813 39.399H8.004a2.405 2.405 0 0 1-2.402-2.402c0-.856.472-1.654 1.232-2.082a.801.801 0 0 0 .404-.622 3.186 3.186 0 0 1 3.169-2.902 3.21 3.21 0 0 1 2.61 1.359.8.8 0 0 0 .838.315c.206-.048.387-.072.556-.072a2.404 2.404 0 0 1 2.402 2.374c-.069.481.189.81.523.927.62.216 1.078.802 1.078 1.503 0 .884-.718 1.602-1.601 1.602Zm13.79-4.376c-.495.28-.903.684-1.187 1.173h-9.832a3.18 3.18 0 0 0-1.187-1.173 4.055 4.055 0 0 0-.063-.43h12.333c-.029.143-.05.286-.064.43ZM19.586 39.4c.273-.471.43-1.019.43-1.602h8.969c0 .583.156 1.13.43 1.602h-9.829Zm22.177-5.106a.8.8 0 0 0 .404.622 2.402 2.402 0 0 1 1.231 2.082 2.405 2.405 0 0 1-2.402 2.402h-8.808a1.603 1.603 0 0 1-1.602-1.602c0-.702.46-1.288 1.079-1.503.337-.117.59-.448.523-.927a2.404 2.404 0 0 1 2.402-2.374c.168 0 .35.024.555.072.318.076.65-.049.839-.315a3.21 3.21 0 0 1 2.61-1.359 3.185 3.185 0 0 1 3.169 2.902Zm-3.65-4.478a4.816 4.816 0 0 0-3.112 1.6 3.585 3.585 0 0 0-.411-.024c-1.263 0-2.45.604-3.202 1.602H17.613a4.02 4.02 0 0 0-3.201-1.602c-.135 0-.272.008-.412.024a4.815 4.815 0 0 0-3.112-1.6v-12.11L24.5 7.235l13.613 10.47v12.11Z" fill="#000"/></g><defs><clipPath id="a"><path fill="#fff" d="M0 0h49v61H0z"/></clipPath></defs></svg>