<svg width="100" height="100" fill="none" xmlns="http://www.w3.org/2000/svg"><g clip-path="url(#a)" fill="#000"><path d="M2.534 55h.8v28.333a3.333 3.333 0 0 0 3.333 3.334h23.334V90a3.333 3.333 0 0 0-3.334 3.333v3.334A3.333 3.333 0 0 0 30.001 100h40a3.333 3.333 0 0 0 3.333-3.333v-3.334A3.333 3.333 0 0 0 70.001 90v-3.333h23.333a3.333 3.333 0 0 0 3.333-3.334V55h.8a2.537 2.537 0 0 0 1.5-4.582l-12.3-8.935v-13.65a2.5 2.5 0 0 0-.27-4.178l-11.396-6.438V8.333a3.322 3.322 0 0 0-1.667-2.87V1.667a1.667 1.667 0 0 0-3.333 0V5h-1.667V1.667a1.667 1.667 0 0 0-3.333 0v3.796a3.322 3.322 0 0 0-1.667 2.87v2.289L51.232 3.788a2.5 2.5 0 0 0-2.461 0l-12.104 6.834V8.333a3.321 3.321 0 0 0-1.666-2.87V1.667a1.667 1.667 0 0 0-3.334 0V5h-1.666V1.667a1.667 1.667 0 0 0-3.334 0v3.796a3.321 3.321 0 0 0-1.666 2.87v8.884l-11.392 6.44a2.5 2.5 0 0 0-.275 4.176v13.634L1.017 50.433A2.537 2.537 0 0 0 2.534 55Zm55.8 15v6.667h-6.667V61.833A8.348 8.348 0 0 1 58.334 70Zm-10 6.667h-6.667V70a8.348 8.348 0 0 1 6.667-8.167v14.834ZM60.001 80h3.333v3.333H36.667V80h23.334Zm10 16.667H30v-3.334h40v3.334ZM66.667 90H33.334v-3.333h33.333V90Zm26.667-13.333h-20a1.667 1.667 0 1 0 0 3.333h20v3.333H66.667V80a3.333 3.333 0 0 0-3.333-3.333h-1.667V70c0-6.443-5.223-11.667-11.666-11.667-6.444 0-11.667 5.224-11.667 11.667v6.667h-1.667A3.333 3.333 0 0 0 33.334 80v3.333H6.667V80h20a1.667 1.667 0 1 0 0-3.333h-20V55h86.667v21.667ZM16.667 28.333h66.667v23.334H16.667V28.333Zm78.344 23.334h-8.344v-6.062l8.344 6.062ZM66.667 8.333h5v7l-5-2.833V8.333Zm-38.333 0h5V12.5l-5 2.833v-7Zm21.667-1.418L82 25H18L50 6.915ZM13.334 45.592v6.075H4.987l8.347-6.075Z"/><path d="M16.667 58.333h-3.334A3.333 3.333 0 0 0 10 61.667v10A3.333 3.333 0 0 0 13.333 75h3.334A3.333 3.333 0 0 0 20 71.667v-10a3.333 3.333 0 0 0-3.333-3.334Zm-3.334 13.334v-10h3.334v10h-3.334ZM30 58.333h-3.333a3.333 3.333 0 0 0-3.334 3.334v10A3.333 3.333 0 0 0 26.667 75H30a3.333 3.333 0 0 0 3.333-3.333v-10A3.333 3.333 0 0 0 30 58.333Zm-3.333 13.334v-10H30v10h-3.333ZM73.333 58.333H70a3.333 3.333 0 0 0-3.334 3.334v10A3.333 3.333 0 0 0 70 75h3.333a3.333 3.333 0 0 0 3.334-3.333v-10a3.333 3.333 0 0 0-3.334-3.334ZM70 71.667v-10h3.333v10H70ZM80 61.667v10A3.333 3.333 0 0 0 83.333 75h3.333A3.333 3.333 0 0 0 90 71.667v-10a3.333 3.333 0 0 0-3.334-3.334h-3.333A3.333 3.333 0 0 0 80 61.667Zm6.666 10h-3.333v-10h3.333v10ZM26.666 31.667h-3.333A3.333 3.333 0 0 0 20 35v10a3.333 3.333 0 0 0 3.333 3.333h3.333A3.333 3.333 0 0 0 30 45V35a3.333 3.333 0 0 0-3.334-3.333ZM23.333 45V35h3.333v10h-3.333ZM40 31.667h-3.333A3.333 3.333 0 0 0 33.333 35v10a3.333 3.333 0 0 0 3.334 3.333H40A3.333 3.333 0 0 0 43.333 45V35A3.333 3.333 0 0 0 40 31.667ZM36.667 45V35H40v10h-3.333ZM63.333 31.667H60A3.333 3.333 0 0 0 56.666 35v10A3.333 3.333 0 0 0 60 48.333h3.333A3.333 3.333 0 0 0 66.667 45V35a3.333 3.333 0 0 0-3.334-3.333ZM60 45V35h3.333v10H60ZM76.667 31.667h-3.334A3.333 3.333 0 0 0 70 35v10a3.333 3.333 0 0 0 3.333 3.333h3.334A3.333 3.333 0 0 0 80 45V35a3.333 3.333 0 0 0-3.333-3.333ZM73.333 45V35h3.334v10h-3.334Z"/></g><defs><clipPath id="a"><path fill="#fff" d="M0 0h100v100H0z"/></clipPath></defs></svg>