<svg width="100" height="100" fill="none" xmlns="http://www.w3.org/2000/svg"><path d="M94.7 15.013h-2.93v2.93h2.93v-2.93ZM89.817 15.013h-2.93v2.93h2.93v-2.93ZM84.935 15.013H65.82v2.93h19.114v-2.93ZM84.933 82.058H72.178v2.93h12.754v-2.93ZM89.817 82.058h-2.93v2.93h2.93v-2.93ZM94.7 82.058h-2.93v2.93h2.93v-2.93ZM73.673 72.476H60.919v2.93h12.754v-2.93ZM78.556 72.476h-2.93v2.93h2.93v-2.93ZM83.439 72.476h-2.93v2.93h2.93v-2.93ZM90.495 24.13h-2.93v2.93h2.93v-2.93ZM85.612 24.13h-2.93v2.93h2.93v-2.93ZM80.73 24.13H67.975v2.93H80.73v-2.93ZM71.679 33.609H58.925v2.93h12.754v-2.93ZM81.446 33.609h-2.93v2.93h2.93v-2.93ZM76.564 33.609h-2.93v2.93h2.93v-2.93ZM14.642 81.933h-2.93v2.93h2.93v-2.93ZM19.525 81.933h-2.93v2.93h2.93v-2.93ZM9.76 81.933H6.83v2.93h2.93v-2.93ZM24.09 72.476h-2.93v2.93h2.93v-2.93ZM33.855 72.476h-2.93v2.93h2.93v-2.93ZM28.972 72.476h-2.93v2.93h2.93v-2.93ZM48.124 62.714h-2.93v2.93h2.93v-2.93ZM53.007 62.714h-2.93v2.93h2.93v-2.93ZM57.89 62.714h-2.93v2.93h2.93v-2.93ZM62.773 62.714h-2.93v2.93h2.93v-2.93ZM22.082 24.13h-2.93v2.93h2.93v-2.93ZM26.965 24.13h-2.93v2.93h2.93v-2.93ZM17.2 24.13h-2.93v2.93h2.93v-2.93ZM12.316 24.13h-2.93v2.93h2.93v-2.93Z" fill="#000"/><path d="M0 10.312v12.332h100V10.312H0Zm97.07 9.402H2.93v-1.771h10.547v-2.93H2.93v-1.771h94.14v6.472ZM43.197 77.356v-6.832h34.538v-2.93H43.197v-6.831h11.1v-2.93h-11.1V51h6.38v5.055h38.412V51h5.273v6.832H58.204v2.93h35.058v6.831H81.64v2.93h11.62v4.39h2.93V25.086h-2.93v3.463H6.739v-3.463h-2.93v49.83h2.93v-4.39h5.275v6.831H0v12.332h100V77.356H43.197Zm44.791-45.878h5.274v6.832h-5.273v-6.832Zm0 9.762h5.274v6.832h-5.273V41.24Zm-35.482-9.762H85.06v21.648H52.506V31.478Zm-9.309 0h6.38v6.832h-6.38v-6.832Zm0 9.762h6.38v6.832h-6.38V41.24ZM14.942 65.644h4.776v-2.93h-4.776V31.478h25.326v9.961h-3.353v2.93h3.353v32.987H14.942V65.644ZM6.738 31.478h5.275v6.832H6.738v-6.832Zm0 9.762h5.275v6.832H6.738V41.24Zm0 9.761h5.275v6.832H6.738v-6.832Zm0 16.594v-6.832h5.275v6.832H6.738Zm90.332 12.69v6.473H2.93v-6.472h94.14Z" fill="#000"/><path d="M65.526 48.072h-10.41v2.93h10.41v-2.93ZM37.306 48.255h-2.93v13.418h2.93V48.255ZM26.107 33.609h-2.93v2.93h2.93v-2.93ZM36.913 33.609H28.06v2.93h8.854v-2.93ZM21.224 33.609h-2.93v2.93h2.93v-2.93Z" fill="#000"/></svg>