<svg width="100" height="80" fill="none" xmlns="http://www.w3.org/2000/svg"><path d="M42.004 42.006h15.992a3.03 3.03 0 0 0 3.027-3.027V24.802a3.03 3.03 0 0 0-3.027-3.028H42.004a3.03 3.03 0 0 0-3.027 3.028v14.177a3.031 3.031 0 0 0 3.027 3.027Zm15.992-2.93H42.005a.098.098 0 0 1-.098-.097V36.62h16.187v2.358a.098.098 0 0 1-.098.098Zm.097-14.274v8.889h-6.628v-8.987h6.53c.055 0 .099.044.099.098Zm-16.089-.098h6.531v8.987h-6.628v-8.89c0-.053.044-.097.097-.097ZM50.248 18.265a3.91 3.91 0 0 0 3.907-3.906 3.91 3.91 0 0 0-3.907-3.906 3.91 3.91 0 0 0-3.906 3.906 3.91 3.91 0 0 0 3.906 3.906Zm0-4.882a.978.978 0 0 1 0 1.953.978.978 0 0 1 0-1.953ZM28.666 38.979V24.802a3.03 3.03 0 0 0-3.027-3.028H9.648a3.03 3.03 0 0 0-3.028 3.028v14.177a3.03 3.03 0 0 0 3.028 3.027h15.99a3.031 3.031 0 0 0 3.028-3.027Zm-2.93-14.177v8.889h-6.628v-8.987h6.53c.055 0 .099.044.099.098Zm-16.088-.098h6.53v8.987H9.55v-8.89c0-.053.044-.097.098-.097ZM9.55 38.98V36.62h16.187v2.358a.098.098 0 0 1-.098.098H9.648a.098.098 0 0 1-.098-.098ZM17.891 18.265a3.91 3.91 0 0 0 3.907-3.906 3.91 3.91 0 0 0-3.907-3.906 3.91 3.91 0 0 0-3.906 3.906 3.91 3.91 0 0 0 3.906 3.906Zm0-4.882a.978.978 0 0 1 0 1.953.978.978 0 0 1 0-1.953Z" fill="#000"/><path d="m98.819 16.091-1.67-1.79V4.014a2.64 2.64 0 0 0-2.637-2.636h-2.743a2.64 2.64 0 0 0-2.636 2.636v1.7l-3.564-3.818A4.407 4.407 0 0 0 82.356.5c-1.213 0-2.384.51-3.212 1.397L66.178 15.788l-1.387-1.486V4.014a2.64 2.64 0 0 0-2.637-2.636h-2.742a2.64 2.64 0 0 0-2.637 2.636v1.699l-3.562-3.818A4.41 4.41 0 0 0 50 .5a4.41 4.41 0 0 0-3.213 1.396L33.822 15.788l-1.386-1.485V4.014a2.64 2.64 0 0 0-2.637-2.636h-2.744a2.64 2.64 0 0 0-2.637 2.636v1.698l-3.562-3.817A4.41 4.41 0 0 0 17.643.5a4.408 4.408 0 0 0-3.212 1.396L1.18 16.092A4.38 4.38 0 0 0 0 19.09v56.993a3.422 3.422 0 0 0 3.418 3.418h93.164A3.422 3.422 0 0 0 100 76.083V62.264a1.465 1.465 0 1 0-2.93 0v13.819c0 .269-.219.488-.488.488h-4.52v-10.24c0-5.352-4.354-9.706-9.705-9.706-5.352 0-9.705 4.354-9.705 9.705v10.241h-5.009V49.45H97.07v5.978a1.465 1.465 0 1 0 2.93 0V19.091c0-1.117-.42-2.182-1.181-3ZM92.062 4.307h2.157v6.856l-2.156-2.31V4.307Zm-32.357 0h2.156v6.855l-2.156-2.31V4.307ZM35.681 18.091 48.928 3.894c.28-.3.66-.465 1.071-.465.41 0 .791.165 1.07.465l13.25 14.197c.252.27.392.623.393.993V46.52H35.287V19.09c0-.372.14-.727.394-1ZM27.348 4.307h2.158v6.857L27.348 8.85V4.307ZM2.93 76.083V49.45h18.66a1.465 1.465 0 1 0 0-2.93H2.93V19.09c0-.372.14-.727.394-1L16.573 3.895c.28-.3.66-.465 1.07-.466.41 0 .791.166 1.071.466L31.963 18.09c.254.273.394.628.394 1v27.43h-3.931a1.465 1.465 0 1 0 0 2.93h3.93v27.122h-5.008V66.33c0-5.351-4.353-9.705-9.705-9.705-5.351 0-9.705 4.354-9.705 9.705v10.242h-4.52a.489.489 0 0 1-.488-.489Zm16.606-6.594H15.75v-3.158c0-1.044.849-1.893 1.892-1.893 1.044 0 1.892.85 1.892 1.893v3.158Zm-3.785 2.93h3.785v4.153H15.75v-4.153Zm1.892-10.91a4.828 4.828 0 0 0-4.822 4.822v10.241h-1.953V66.331a6.783 6.783 0 0 1 6.775-6.776 6.783 6.783 0 0 1 6.776 6.776v10.241h-1.954V66.331a4.828 4.828 0 0 0-4.822-4.822Zm39.133 15.063h-1.954V66.33A4.828 4.828 0 0 0 50 61.508a4.828 4.828 0 0 0-4.822 4.823v10.24h-1.954v-10.24A6.783 6.783 0 0 1 50 59.554a6.783 6.783 0 0 1 6.776 6.775v10.242Zm-4.883-7.083h-3.786v-3.158c0-1.044.85-1.893 1.893-1.893 1.044 0 1.893.85 1.893 1.893v3.158Zm-3.786 2.93h3.786v4.153h-3.786v-4.153Zm36.142-2.93h-3.785v-3.158c0-1.044.85-1.893 1.893-1.893 1.043 0 1.892.85 1.892 1.893v3.158Zm-3.785 2.93h3.785v4.152h-3.785V72.42Zm-4.883-6.089a6.783 6.783 0 0 1 6.776-6.775 6.783 6.783 0 0 1 6.775 6.775v10.241H87.18v-10.24a4.828 4.828 0 0 0-4.822-4.823 4.828 4.828 0 0 0-4.822 4.823v10.24H75.58v-10.24ZM64.713 76.572h-5.008V66.33c0-5.351-4.353-9.705-9.705-9.705s-9.705 4.354-9.705 9.705v10.242h-5.009V49.45h29.427v27.122Zm2.93-30.052V19.084c.001-.37.141-.723.395-.994L81.286 3.894c.28-.3.66-.466 1.07-.466.41 0 .79.166 1.071.467l13.25 14.194c.253.273.393.629.393 1.001v27.43H67.643Z" fill="#000"/><path d="M90.352 21.774h-15.99a3.03 3.03 0 0 0-3.028 3.028v14.177a3.03 3.03 0 0 0 3.027 3.027h15.991a3.03 3.03 0 0 0 3.028-3.027V24.802a3.03 3.03 0 0 0-3.028-3.028Zm.098 3.028v8.889h-6.629v-8.987h6.531c.054 0 .098.044.098.098Zm-16.089-.098h6.53v8.987h-6.628v-8.89c0-.053.044-.097.098-.097Zm15.991 14.373h-15.99a.098.098 0 0 1-.099-.098V36.62H90.45v2.358a.098.098 0 0 1-.098.098ZM82.605 18.265a3.91 3.91 0 0 0 3.906-3.906 3.91 3.91 0 0 0-3.906-3.906 3.91 3.91 0 0 0-3.906 3.906 3.91 3.91 0 0 0 3.906 3.906Zm0-4.882a.978.978 0 0 1 0 1.953.978.978 0 0 1 0-1.953Z" fill="#000"/></svg>