<svg width="100" height="100" fill="none" xmlns="http://www.w3.org/2000/svg"><path d="M30.243 63.31c-4.11 0-7.452-3.344-7.452-7.453s3.343-7.452 7.452-7.452c4.11 0 7.452 3.343 7.452 7.452 0 4.11-3.343 7.453-7.452 7.453Zm0-10.999a3.55 3.55 0 0 0-3.546 3.546 3.55 3.55 0 0 0 3.546 3.546 3.55 3.55 0 0 0 3.546-3.546 3.55 3.55 0 0 0-3.546-3.546ZM85.696 81.659a1.947 1.947 0 0 1-1.915-1.571 1.898 1.898 0 0 1 .112-1.128 1.994 1.994 0 0 1 .422-.635 1.904 1.904 0 0 1 .635-.422 1.958 1.958 0 0 1 1.128-.111 2.002 2.002 0 0 1 .7.29c.108.07.209.153.298.243a1.941 1.941 0 0 1 .536 1 1.94 1.94 0 0 1-.112 1.128 1.92 1.92 0 0 1-.18.336 1.916 1.916 0 0 1-.877.721 1.956 1.956 0 0 1-.748.149Z" fill="#000"/><path d="M98.556 11.844c-4.314-1.167-8.068-1.688-12.173-1.688-14.496 0-21.767 6.56-28.798 12.904-2.894 2.61-5.644 5.092-8.877 7.136-5.033-4.203-11.454-8.365-22.429-8.365-12.524 0-19.149 5.366-25.555 10.556-.458.37-.724.928-.724 1.518v53.986c0 1.08.874 1.953 1.953 1.953h96.094A1.953 1.953 0 0 0 100 87.891V13.73c0-.882-.591-1.655-1.444-1.885Zm-18.214 52.61v-8.563l2.961-2.752 2.962 2.752v8.564h-5.923Zm-9.83 0v-8.563l2.962-2.752 2.962 2.752v8.564h-5.924Zm-9.829 0v-8.563l2.962-2.752 2.962 2.752v8.564h-5.924Zm-9.01 0v-3.223c.086-.036.17-.078.252-.126a66.628 66.628 0 0 0 4.852-3.196v6.546h-5.105ZM37.594 77.754V68.13a1.953 1.953 0 0 0-1.953-1.953H24.844a1.953 1.953 0 0 0-1.954 1.953v9.623H12.72V55.715l17.523-12.872 17.523 12.873v22.037h-10.17Zm-3.906 0h-6.892v-7.67h6.892v7.67Zm17.204-24.588-.015-.01-.002-.002-19.477-14.307a1.937 1.937 0 0 0-1.119-.38h-.075a1.954 1.954 0 0 0-1.119.38L9.592 53.166v-4.204l20.65-15.17 20.65 15.17v4.203ZM15.46 39.805l-2.477 1.82V37.43h2.477v2.374Zm80.634 10.753-1.632-1.516a1.952 1.952 0 0 0-2.659 0l-3.585 3.331-3.585-3.331a1.951 1.951 0 0 0-2.659 0l-3.585 3.331-3.585-3.331a1.951 1.951 0 0 0-2.659 0l-3.585 3.331-2.314-2.15c.909-.81 1.701-1.533 2.35-2.124.313-.286.588-.537.825-.75 6.952-6.274 13.53-12.208 26.673-12.493v15.702ZM90.17 55.89l2.961-2.752 2.962 2.752v8.564H90.17V55.89ZM3.906 34.837c5.89-4.757 11.67-9.1 22.373-9.1 10.436 0 16.076 4.118 20.958 8.336.63.543 1.533.63 2.253.214 4.112-2.372 7.466-5.4 10.711-8.326 6.782-6.118 13.188-11.898 26.182-11.898 3.285 0 6.334.368 9.71 1.182V30.95c-6.44.132-12.083 1.552-17.225 4.33-4.744 2.564-8.465 5.922-12.065 9.17l-.84.763c-2.304 2.102-6.472 5.903-11.164 9.308v-6.547c0-.621-.295-1.206-.797-1.574L31.4 29.795a1.951 1.951 0 0 0-2.313 0l-9.72 7.14v-1.458a1.953 1.953 0 0 0-1.953-1.953H11.03a1.953 1.953 0 0 0-1.953 1.953v9.018l-2.594 1.904a1.954 1.954 0 0 0-.797 1.574v9.05a1.954 1.954 0 0 0 3.11 1.575l.017-.013v5.87H3.906V34.837Zm92.188 51.101H3.906V68.36h4.907v11.346c0 1.079.875 1.953 1.954 1.953h67.139a1.953 1.953 0 1 0 0-3.906H51.673V68.36h44.42v17.578Z" fill="#000"/></svg>